<svg xmlns="http://www.w3.org/2000/svg" xml:space="preserve" width="2048" height="2048" style="shape-rendering:geometricPrecision;text-rendering:geometricPrecision;image-rendering:optimizeQuality;fill-rule:evenodd;clip-rule:evenodd"><defs><clipPath id="id0"><path d="M1024 0c565.539 0 1024 458.461 1024 1024s-458.461 1024-1024 1024S0 1589.539 0 1024 458.461 0 1024 0z"/></clipPath><style>.fil1{fill:#1e88e5}.fil3,.fil7{fill:#4d4d4d;fill-rule:nonzero}.fil3{fill:#fffffe}</style></defs><g id="Layer_x0020_1"><path d="M1024 0c565.539 0 1024 458.461 1024 1024s-458.461 1024-1024 1024S0 1589.539 0 1024 458.461 0 1024 0z" style="fill:#64b5f6"/><g style="clip-path:url(#id0)"><g id="_341188144"><path id="_4558082801" class="fil1" d="m1566.37 1006.48 1135.88 1135.88 1 1.12.93 1.15.86 1.19.8 1.23.73 1.26.67 1.28.59 1.31.53 1.33.47 1.35.4 1.37.32 1.39.27 1.39.19 1.41.13 1.41.07 1.42-.01 1.42-.07 1.41-.14 1.42-.21 1.4-.27 1.4-.35 1.38-.41 1.37-.47 1.35-.55 1.33-.61 1.31-.68 1.29-.75 1.25-.81 1.23-.89 1.19-.95 1.16-1.02 1.11-1135.88-1135.88 1.02-1.12.95-1.15.89-1.19.81-1.23.75-1.26.68-1.28.61-1.31.55-1.33.47-1.35.41-1.37.34-1.39.28-1.39.21-1.41.14-1.41.07-1.42v-1.41l-.06-1.42-.13-1.41-.19-1.41-.27-1.39-.33-1.39-.39-1.37-.47-1.35-.53-1.33-.59-1.31-.67-1.29-.73-1.25-.8-1.23-.86-1.19-.93-1.16z"/><path id="_455808784" class="fil1" d="M1000.42 724.049 2136.3 1859.93l-1.38-.7-1.38-.72-1.38-.73-1.37-.74-1.38-.76-1.37-.77-1.36-.78-1.37-.79-1.36-.81-1.36-.82-1.36-.83-1.35-.85-1.35-.85-1.35-.87-1.34-.88-1.35-.89L978.614 711.259l1.34.891 1.344.879 1.348.868 1.35.855 1.355.844 1.356.832 1.36.818 1.362.808 1.365.794 1.369.782 1.37.77 1.374.756 1.375.743 1.378.73 1.38.716z"/><path id="_455809432" class="fil1" d="M1354.49 1224.82 2490.38 2360.7l-191.25-183.74-1135.88-1135.88z"/><path id="_455809648" class="fil1" d="m1163.25 1041.08 1135.88 1135.88-191.25-183.75L972.002 857.33z"/><path id="_455810320" class="fil1" d="M978.614 711.259 2114.49 1847.14l-2.57-1.75-2.56-1.79-2.54-1.83-2.53-1.87-2.52-1.91-2.5-1.94-2.48-1.99-2.47-2.02-2.45-2.06-2.43-2.09-2.41-2.12-2.39-2.16-2.37-2.19-2.34-2.22-2.33-2.25-2.3-2.27-2.28-2.31-2.26-2.33L934.879 674.156l2.256 2.332 2.279 2.305 2.303 2.277 2.327 2.249 2.348 2.219 2.371 2.189 2.389 2.157 2.411 2.124 2.429 2.092 2.449 2.056 2.466 2.022 2.484 1.985 2.5 1.949 2.516 1.909 2.531 1.87 2.545 1.831 2.558 1.789z"/><path id="_455810008" class="fil1" d="M997.921 531.865 2133.8 1667.75l1.5 1.64 1.49 1.65 1.48 1.68 1.48 1.7 1.47 1.72 1.46 1.73 1.45 1.76 1.45 1.77 1.44 1.79 1.43 1.8 1.42 1.83 1.42 1.84 1.41 1.85 1.39 1.87 1.39 1.89L1019.6 558.387l-1.39-1.887-1.4-1.87-1.4-1.856-1.42-1.84-1.42-1.823-1.43-1.807-1.44-1.788-1.45-1.771-1.45-1.754-1.47-1.735-1.47-1.718-1.47-1.697-1.48-1.678-1.493-1.659z"/><path id="_455809768" class="fil1" d="M1019.6 558.387 2155.48 1694.27l2.18 3.02 2.16 3.06 2.13 3.09 2.1 3.13 2.08 3.16 2.05 3.19 2.03 3.22 1.99 3.25 1.96 3.28 1.93 3.3 1.9 3.32 1.86 3.35 1.83 3.37 1.79 3.38 1.76 3.41 1.72 3.42 1.69 3.43 1.64 3.45 1.6 3.46 1.57 3.47 1.52 3.48 1.47 3.48 1.44 3.49 1.39 3.5 1.34 3.5 1.3 3.49 1.25 3.5 1.2 3.5 1.15 3.49 1.1 3.49 1.05 3.48 1 3.47L1072.78 666.019l-1-3.472-1.05-3.482-1.1-3.487-1.15-3.492-1.2-3.496-1.25-3.499-1.3-3.498-1.34-3.497-1.39-3.495-1.44-3.49-1.48-3.486-1.52-3.478-1.56-3.47-1.6-3.46-1.64-3.447-1.69-3.435-1.72-3.42-1.76-3.404-1.79-3.388-1.83-3.367-1.86-3.346-1.9-3.325-1.93-3.301-1.96-3.276-2-3.25-2.02-3.221-2.05-3.191-2.08-3.161-2.1-3.127-2.13-3.093-2.16-3.058z"/><path id="_455809576" class="fil1" d="m1566.14 1047.11 1135.88 1135.88-169.94 176.88-1.07 1.06-1.12 1-1.15.93-1.2.86-1.22.8-1.26.73-1.28.67-1.31.59-1.33.53-1.35.47-1.37.4-1.39.32-1.39.27-1.41.19-1.41.13-1.42.06h-1.42l-1.41-.07-1.42-.14-1.4-.21-1.4-.27-1.38-.35-1.37-.41-1.36-.47-1.33-.55-1.31-.61-1.28-.68-1.26-.75-1.22-.81-1.19-.89-1.16-.95-1.11-1.02-1135.89-1135.88 1.12 1.02 1.16.95 1.19.89 1.22.81 1.26.75 1.28.68 1.31.61 1.33.54 1.36.48 1.37.41 1.38.34 1.4.28 1.4.2 1.41.15 1.42.07h1.42l1.41-.06 1.42-.13 1.4-.19 1.4-.27 1.38-.33 1.37-.4 1.36-.46 1.33-.53 1.31-.6 1.28-.66 1.26-.73 1.22-.8 1.19-.86 1.16-.93 1.12-1 1.07-1.06z"/><path id="_455810080" class="fil1" d="M640.052 732.829 1775.93 1868.71l1.01 1.06L641.057 733.887z"/><path id="_455809816" class="fil1" d="m1005.75 1268.43 1135.88 1135.88.78 1.33 1.04 1.72 1.29 2.09 1.54 2.42 1.79 2.73 2.02 3.02 2.26 3.26 2.49 3.48 2.72 3.68 2.95 3.84 3.16 3.98 3.38 4.09 3.59 4.16 3.79 4.22 4 4.23 4.19 4.23 4.39 4.19L1051.13 1325.1l-4.39-4.19-4.19-4.23-4-4.23-3.8-4.22-3.58-4.16-3.38-4.09-3.16-3.98-2.95-3.84-2.72-3.68-2.49-3.48-2.26-3.27-2.02-3.01-1.79-2.73-1.54-2.43-1.29-2.08-1.04-1.73z"/><path id="_455810272" class="fil1" d="m1242.1 1294.02 1135.89 1135.89-.07-.04-1135.88-1135.89z"/><path id="_455810128" class="fil1" d="m1551.27 1412.79 1135.88 1135.88 8.68 9.18 7.51 9.39 6.25 9.6 4.86 9.8 3.38 9.99 1.79 10.16.08 10.34-1135.88-1135.88-.08-10.34-1.79-10.17-3.38-9.98-4.87-9.8-6.24-9.6-7.52-9.39z"/><path id="_455809864" class="fil1" d="M1583.82 1481.25 2719.7 2617.13l-.04-.01-1135.88-1135.88z"/><path id="_455810752" class="fil1" d="m1583.78 1481.24 1135.88 1135.88v.06L1583.78 1481.3z"/><path id="_455810896" class="fil1" d="m1583.84 1481.3 1135.89 1135.89-.03.31-.03.31-.04.31-.03.3-.05.31-.04.31-.05.3-.05.3-1135.89-1135.88.06-.3.05-.31.04-.3.05-.31.03-.31.04-.3.03-.32z"/><path id="_455810608" class="fil1" d="m1583.52 1483.76 1135.89 1135.88-.14 1.03-.18 1.15-.22 1.27-.27 1.38-.32 1.49-.37 1.58-.43 1.68-.5 1.76-.57 1.84-.64 1.92-.72 1.98-.81 2.05-.89 2.1-.98 2.15-1.08 2.19-1.17 2.23-1.29 2.26-1.39 2.29-1.51 2.3-1.63 2.31-1.74 2.32-1.88 2.31-2.01 2.31-2.15 2.3-2.28 2.27-2.43 2.25-2.58 2.22-2.74 2.18-2.9 2.13-3.05 2.09-3.23 2.02-3.4 1.97-1135.88-1135.89 3.4-1.96 3.23-2.02 3.05-2.09 2.9-2.13 2.73-2.18 2.59-2.22 2.43-2.25 2.28-2.27 2.15-2.3 2.01-2.31 1.87-2.32 1.75-2.31 1.63-2.31 1.51-2.31 1.39-2.28 1.28-2.26 1.18-2.23 1.08-2.19.98-2.15.89-2.1.8-2.05.73-1.98.64-1.92.57-1.84.49-1.77.44-1.67.37-1.59.32-1.48.27-1.38.22-1.27.17-1.15z"/><path id="_455810776" class="fil1" d="M641.057 733.887 1776.94 1869.77l1.96 1.93 2.82 2.83 3.65 3.73 4.47 4.63 5.24 5.55 6.01 6.46 6.74 7.38 7.45 8.32 8.13 9.24 8.79 10.19 9.42 11.13 10.03 12.09 10.61 13.04 11.17 14 11.7 14.98 12.21 15.95 12.69 16.92 13.15 17.91 13.58 18.91 13.99 19.9 14.37 20.9 14.72 21.92 15.06 22.92 15.36 23.95 15.65 24.97 15.9 26 16.13 27.04 16.34 28.09 16.51 29.13 16.68 30.18 16.8 31.24 16.91 32.31L1005.3 1267.63l-16.911-32.31-16.803-31.24-16.673-30.19-16.518-29.13-16.336-28.08-16.132-27.04-15.9-26-15.644-24.97-15.363-23.95-15.057-22.926-14.726-21.912-14.369-20.904-13.987-19.901-13.58-18.905-13.149-17.912-12.692-16.927-12.209-15.947-11.703-14.974-11.169-14.004-10.613-13.042-10.03-12.085-9.421-11.133-8.789-10.187-8.131-9.248-7.446-8.314-6.74-7.384-6.006-6.462-5.246-5.545-4.464-4.634-3.654-3.726-2.82-2.828z"/><path id="_455810680" class="fil1" d="m1005.35 1267.61 1135.88 1135.88.4.82-1135.88-1135.88z"/><path id="_455811040" class="fil1" d="m1092.56 1564.8 1135.89 1135.88h-.47l-.23-.01-.23-.01-.23-.01-.23-.01-.23-.02-.23-.01-1135.88-1135.88.22.01.24.02.22.01.24.01.23.01h.23l.23.01z"/><path id="_455810920" class="fil1" d="M683.936 1262.53 1819.82 2398.42v63.51L683.936 1326.05z"/><path id="_455811280" class="fil1" d="M922.235 1503.23 2058.12 2639.11l-.05.04L922.185 1503.27z"/><path id="_455811448" class="fil1" d="M736.864 1234.75 1872.75 2370.63l-1.91-1.74-1.95-1.67-1.99-1.61-2.03-1.53-2.06-1.44-2.09-1.33-2.11-1.22-2.14-1.09-2.16-.96-2.18-.81-2.19-.65-2.19-.47-2.21-.3-2.2-.1L707.456 1219.83l2.205.1 2.204.29 2.197.48 2.187.65 2.176.81 2.159.95 2.14 1.1 2.117 1.22 2.089 1.33 2.061 1.44 2.027 1.52 1.99 1.61 1.95 1.68z"/><path id="_455811376" class="fil1" d="M760.737 1264.51 1896.62 2400.39l-.03.01L760.708 1264.51z"/><path id="_455811352" class="fil1" d="M707.456 1219.83 1843.34 2355.71h-.5l-.25-.01-.25-.01-.24-.01-.25-.02-.25-.01-.24-.02L705.478 1219.75l.244.02.246.01.247.02.247.01.248.01h.248l.249.01z"/><path id="_455811664" class="fil1" d="M705.478 1219.75 1841.36 2355.63l-.41.03-.48.05-.56.08-.61.12-.67.16-.72.21-.77.26-.8.32-.84.39-.87.46-.89.54-.91.62-.92.72-.92.81-.92.91-.92 1.02-.91 1.14-.89 1.25-.86 1.39-.84 1.51-.8 1.66-.76 1.8-.72 1.95-.67 2.11-.6 2.27-.55 2.45-.48 2.61-.4 2.8-.33 2.99-.23 3.18-.15 3.39-.05 3.59L684.028 1262.53l.05-3.58.147-3.39.239-3.18.323-2.99.404-2.8.477-2.62.546-2.44.608-2.27.666-2.11.717-1.95.763-1.8.803-1.66.837-1.52.865-1.38.89-1.26.906-1.13.917-1.02.924-.92.924-.81.917-.71.907-.62.891-.54.868-.46.84-.39.805-.32.767-.26.72-.21.671-.16.613-.12.552-.08.483-.06z"/><path id="_455811424" class="fil1" d="M684.028 1262.53 1819.91 2398.42h-.09L683.936 1262.53z"/><path id="_455811568" class="fil1" d="M922.654 1503.71 2058.54 2639.59l-.04.02L922.622 1503.73z"/><path id="_455811736" class="fil1" d="M1090.72 1564.73 2226.6 2700.61l-1.84-.01-2.34-.03-2.81-.06-3.26-.11-3.69-.16-4.07-.22-4.43-.29-4.77-.38-5.08-.47-5.35-.57-5.6-.69-5.82-.81-6.02-.94-6.18-1.08-6.31-1.23-6.42-1.4-6.5-1.57-6.55-1.76-6.57-1.94-6.56-2.15-6.53-2.36-6.46-2.58-6.37-2.81-6.26-3.05-6.1-3.31-5.93-3.57-5.72-3.84-5.49-4.12-5.22-4.42L936.47 1518.8l5.224 4.41 5.487 4.13 5.721 3.84 5.926 3.57 6.104 3.3 6.253 3.06 6.372 2.81 6.464 2.58 6.529 2.36 6.563 2.15 6.567 1.94 6.55 1.76 6.5 1.56 6.42 1.4 6.31 1.24 6.18 1.08 6.01.94 5.83.81 5.6.68 5.35.58 5.07.47 4.77.37 4.44.3 4.07.22 3.69.16 3.26.11 2.81.06 2.34.03z"/><path id="_455811856" class="fil1" d="M683.936 1326.05 1819.82 2461.93v215.38L683.934 1541.43z"/><path id="_455811256" class="fil1" d="M684.025 1541.43 1819.91 2677.31l-.12 2.39-.36 2.32-.57 2.25-.79 2.14-.98 2.05-1.18 1.92-1.34 1.8-1.51 1.66-1.66 1.51-1.8 1.35-1.93 1.17-2.04.98-2.15.79-2.24.57-2.32.36-2.39.12L660.651 1564.81l2.39-.12 2.321-.36 2.24-.57 2.147-.79 2.044-.98 1.927-1.18 1.799-1.34 1.661-1.51 1.508-1.66 1.345-1.8 1.172-1.93.984-2.04.785-2.15.577-2.24.354-2.32z"/><path id="_455812072" class="fil1" d="M660.651 1564.81 1796.53 2700.69h-14.36L646.287 1564.81z"/><path id="_455812288" class="fil1" d="M646.287 1564.81 1782.17 2700.69h-49.95L596.339 1564.81z"/><path id="_455812096" class="fil1" d="M596.339 1564.81 1732.22 2700.69l-2.39-.12-2.32-.36-2.24-.57-2.15-.79-2.04-.98-1.93-1.17-1.8-1.35L581.47 1559.47l1.8 1.34 1.928 1.18 2.043.98 2.147.79 2.24.57 2.322.36z"/><path id="_455811904" class="fil1" d="m1538.03 1547.08 1135.88 1135.89-1.78.96-1.82.94-1.86.93-1.92.9-1.96.89-2.01.86-2.06.84-2.1.81-2.16.8-2.2.76-2.26.75-2.3.71-2.36.69-2.41.66-2.46.64-2.52.6-2.57.57-2.62.54-2.68.51-2.74.48-2.79.44-2.85.41-2.9.37-2.96.34-3.03.3-3.08.26-3.14.23-3.2.18-3.26.15-3.32.1-3.39.07-3.45.02L1455.87 1564.8l3.45-.02 3.38-.07 3.33-.1 3.26-.15 3.2-.18 3.14-.23 3.08-.26 3.02-.3 2.97-.34 2.9-.37 2.85-.41 2.79-.45 2.74-.47 2.68-.51 2.62-.54 2.57-.57 2.52-.61 2.46-.63 2.41-.66 2.36-.69 2.3-.71 2.26-.75 2.2-.77 2.16-.79 2.1-.81 2.06-.84 2.01-.87 1.96-.88 1.91-.91 1.87-.92 1.82-.94z"/><path id="_455812360" class="fil1" d="m1455.87 1564.8 1135.88 1135.88h-363.3L1092.56 1564.8z"/><path id="_341187928" class="fil1" d="m1182.81 637.91 382.492 367.492c11.699 11.24 12.069 30.014.835 41.707l-169.941 176.878c-11.236 11.693-30.014 12.069-41.707.833l-191.247-183.745L971.997 857.33l28.42-133.28c-7.376-3.716-14.667-8.01-21.808-12.79-27.502-18.414-52.903-44.154-72.38-72.032-19.607-28.063-33.304-58.448-37.243-85.935-3.096-21.598-.215-41.54 10.41-57.508.033-.052.066-.103.102-.152.233-.355.502-.69.802-1.003.004-.005.008-.01.013-.013.297-.312.618-.592.96-.84.055-.044.113-.085.171-.125l.015-.01c11.764-8.525 24.813-11.542 38.499-10.103 16.919 1.78 34.624 10.464 51.828 23.926 16.69 13.06 33.053 30.72 47.808 50.922 23.384 32.015 42.819 70.636 53.177 107.633l110.039-28.109zm-177.517 629.722.05-.026.404.82c6.95 11.96 58.465 96.107 131.693 95.649v-.09a24.53 24.53 0 0 1 1.618.045c11.152-.47 76.684-5.95 103.043-70.007l-.068-.038c4.688-11.392 17.342-17.099 28.865-13.328 21.325 5.805 321.466 89.464 312.92 200.588l-.043-.003-.004.056.069.005a23.88 23.88 0 0 1-.32 2.456c-1.304 10.28-8.305 42.75-45.495 63.326-18.709 10.358-45.046 17.713-82.158 17.713H1092.56c-.622 0-1.238-.025-1.848-.072-16.775.014-124.501-2.21-168.062-61.021l-.032.025-.387-.5-.05.038-.689-.996c-9.849-12.798-83.506-109.484-160.76-237.766l-.028.007a24.11 24.11 0 0 1-.899-1.637c-5.125-8.028-28.828-43.047-52.353-43.047-.667 0-1.327-.029-1.979-.084-3.958.216-21.45 3.392-21.45 42.788h-.092v63.517l-.001 215.381h.09c0 12.908-10.464 23.374-23.373 23.375h-64.312c-12.91 0-23.376-10.467-23.376-23.375v-276.275c-40.285-60.21-85.302-161.547-102.058-259.034-6.577-38.269-8.89-76.185-5.036-111.227 1.042-9.463 2.532-18.716 4.51-27.71 9.838-44.727 31.495-83.059 69.267-109.402 21.548-15.027 47.971-25.854 79.992-31.36l-.006-.034c8.251-1.417 16.235 1.678 21.424 7.497 16.25 15.87 183.412 183.405 364.24 533.745z"/></g></g><path d="M1024 0c565.539 0 1024 458.461 1024 1024s-458.461 1024-1024 1024S0 1589.539 0 1024 458.461 0 1024 0z" style="fill:none"/><path class="fil3" d="M1065.46 731.192a7.402 7.402 0 0 0 14.722 1.545c5.437-51.72-22.273-121.9-60.583-174.35-14.756-20.202-31.119-37.862-47.809-50.922-17.204-13.462-34.908-22.147-51.828-23.926-13.757-1.445-26.872 1.61-38.684 10.238a7.396 7.396 0 0 0 8.75 11.926c8.61-6.289 18.239-8.508 28.39-7.441 13.993 1.47 29.153 9.056 44.261 20.88 15.624 12.226 31.028 28.875 44.993 47.996 36.428 49.873 62.84 115.995 57.788 164.054z"/><path d="m1182.81 637.912 382.493 367.491c11.699 11.24 12.07 30.014.834 41.707l-169.94 176.877c-11.235 11.694-30.013 12.07-41.707.835l-191.247-183.747L971.996 857.33l37.34-175.108 173.472-44.31zm-100.847 86.58c7.9 7.59 8.15 20.147.561 28.047-7.59 7.9-20.146 8.151-28.046.561-7.9-7.59-8.151-20.147-.561-28.046 7.59-7.9 20.147-8.151 28.046-.561z" style="fill:#be9b75"/><path d="m1226.82 717.002-6.813 7.09-14.18-13.624 6.813-7.09 14.18 13.624zm-15.756-15.024c-1.459-1.24-3.303-2.403-5.017-3.258-5.537-2.744-12.146-3.564-18.072-1.602l3.05 9.347c4.606-1.518 10.17.02 13.793 3.107l6.246-7.594zm-33.059 1.97 7.09 6.812-13.624 14.18-7.09-6.812 13.624-14.18zm-20.437 21.27 7.09 6.812-13.623 14.18-7.09-6.812 13.623-14.18zm-20.436 21.27 7.091 6.813-13.625 14.18-7.09-6.812 13.624-14.18zm-20.437 21.27 7.092 6.813-13.624 14.18-7.092-6.812 13.624-14.18zm-20.435 21.271 7.09 6.813-13.624 14.18-7.091-6.812 13.625-14.18zm-20.437 21.27 7.09 6.813-13.624 14.18-7.09-6.812 13.624-14.18zm-20.436 21.271 7.09 6.813-13.624 14.18-7.09-6.812 13.624-14.18zm-20.174 24.259c-2.46 8.014.026 16.711 5.38 22.971l7.43-6.437c-3.159-3.708-4.858-8.934-3.391-13.714l-9.419-2.82zm12.71 30.178 6.812-7.09 14.18 13.623-6.813 7.091-14.18-13.624zm21.27 20.436 6.812-7.09 14.18 13.624-6.812 7.091-14.18-13.625zm21.27 20.436 6.813-7.09 14.18 13.624-6.813 7.09-14.18-13.624zm21.27 20.437 6.813-7.09 14.18 13.624-6.812 7.09-14.18-13.624zm21.271 20.437 6.813-7.092 14.18 13.625-6.813 7.09-14.18-13.623zm21.27 20.436 6.813-7.091 14.18 13.624-6.812 7.091-14.18-13.624zm21.271 20.436 6.813-7.09 14.18 13.623-6.811 7.09-14.182-13.623zm21.272 20.436 6.811-7.09 14.182 13.624-6.813 7.09-14.18-13.624zm21.27 20.437 6.813-7.092 14.18 13.626-6.812 7.09-14.18-13.624zm21.27 20.436 6.813-7.09 14.18 13.623-6.812 7.091-14.18-13.624zm21.271 20.436 6.813-7.09 14.18 13.624-6.812 7.091-14.18-13.625zm21.27 20.436 6.813-7.09 14.18 13.624-6.812 7.09-14.18-13.624zm21.271 20.437 6.813-7.09 14.18 13.624-6.812 7.09-14.18-13.624zm21.27 20.437 6.813-7.092 14.18 13.625-6.812 7.09-14.18-13.623zm21.271 20.436 6.813-7.091 14.18 13.624-6.812 7.091-14.18-13.624zm22.783 20.61c.068.065.898.472 1.046.544 7.19 3.529 15.86 3.657 22.728-.715l-5.308-8.276c-4.156 2.641-9.54 2.109-13.729-.167v-.002l-4.737 8.617zm31.764-7.67-7.09-6.812 13.624-14.18 7.09 6.812-13.624 14.18zm20.437-21.27-7.09-6.813 13.624-14.18 7.09 6.813-13.624 14.18zm20.436-21.27-7.09-6.813 13.624-14.18 7.09 6.812-13.624 14.18zm20.437-21.271-7.091-6.813 13.624-14.18 7.091 6.813-13.624 14.18zm20.435-21.27-7.09-6.813 13.624-14.18 7.092 6.81-13.626 14.182zm20.437-21.272-7.09-6.813 13.624-14.18 7.09 6.812-13.624 14.18zm20.437-21.27-7.09-6.813 12.542-13.055.05-.053.06-.063.049-.053.05-.054.048-.053.047-.055.056-.062.047-.056.046-.053.053-.065.046-.056.045-.054.044-.054.044-.056-.011.013 7.787 6.004-.022.028-.093.117-.094.118-.093.116-.096.115-.087.105-.097.114-.098.114-.09.102-.1.113-.1.11-.101.113-.102.108-.094.1-.103.11-12.543 13.054zm18.263-26.459c.46-7.272-2.72-14.557-7.911-19.58l-.108-.105-1.422-1.365-6.812 7.09 1.422 1.366c3.209 3.083 5.298 7.553 5.014 12.053l9.817.541zm-16.53-27.863-6.813 7.09-14.18-13.624 6.812-7.09 14.18 13.624zm-21.271-20.437-6.813 7.092-14.18-13.626 6.813-7.09 14.18 13.624zm-21.27-20.436-6.813 7.091-14.18-13.624 6.812-7.091 14.18 13.624zm-21.271-20.436-6.813 7.09-14.18-13.624 6.813-7.09 14.18 13.624zm-21.27-20.436-6.813 7.09-14.18-13.624 6.812-7.09 14.18 13.624zm-21.271-20.437-6.813 7.091-14.18-13.625 6.813-7.09 14.18 13.624zm-21.27-20.436-6.813 7.09-14.18-13.623 6.812-7.091 14.18 13.624zm-21.271-20.436-6.813 7.09-14.18-13.624 6.813-7.091 14.18 13.625zm-21.27-20.436-6.813 7.09-14.18-13.624 6.812-7.09 14.18 13.624zm-21.271-20.437-6.813 7.09-14.18-13.624 6.813-7.09 14.18 13.624zm-21.27-20.437-6.813 7.092-14.18-13.626 6.81-7.09 14.182 13.624zm-21.272-20.436-6.812 7.091-14.181-13.624 6.812-7.091 14.18 13.624zm-21.27-20.436-6.814 7.09-14.18-13.624 6.813-7.09 14.18 13.624zm-21.271-20.436-6.813 7.09-14.18-13.624 6.812-7.09 14.18 13.624z" style="fill:#8f6c46;fill-rule:nonzero"/><path d="M1091.04 715.046c13.116 12.602 13.533 33.452.932 46.569-12.603 13.116-33.453 13.533-46.569.931s-13.533-33.452-.932-46.568c12.603-13.116 33.453-13.533 46.569-.932zm-9.076 9.446c7.9 7.59 8.151 20.147.561 28.047-7.59 7.9-20.146 8.15-28.046.561-7.9-7.59-8.15-20.147-.561-28.047 7.59-7.899 20.147-8.15 28.046-.56z" style="fill:#4d4d4d"/><path class="fil7" d="m1270.36 1024.66 124.79 119.9-10.22 10.63-124.79-119.89zM1281.6 1012.97l124.79 119.89-6.82 7.09-124.79-119.89zM1294.54 999.503l124.78 119.897-6.81 7.09-124.79-119.9zM1307.47 986.037l124.79 119.893-6.81 7.09-124.79-119.893zM1320.41 972.571l124.79 119.899-6.81 7.09-124.79-119.899zM1335.05 957.333l124.79 119.897-10.22 10.63-124.79-119.892zM1346.29 945.639l124.79 119.891-6.82 7.09-124.79-119.89zM1372.16 918.706l124.79 119.894-6.81 7.09-124.79-119.893zM1360.93 930.4l124.79 119.9-10.22 10.63-124.79-119.894z"/><path class="fil3" d="M1073.89 738.866a7.406 7.406 0 1 0-2.056-14.67c-27.267 3.908-57.179-6.603-85.011-25.238-25.956-17.38-49.982-41.746-68.451-68.182-18.34-26.25-31.113-54.393-34.716-79.54-2.607-18.19-.375-34.669 8.143-47.39a7.396 7.396 0 0 0-12.3-8.214c-10.709 15.992-13.617 35.994-10.513 57.662 3.94 27.486 17.637 57.87 37.243 85.933 19.477 27.879 44.878 53.62 72.38 72.032 30.689 20.548 64.133 32.07 95.281 27.607z"/><path d="M641.057 733.887c16.25 15.87 183.412 183.405 364.24 533.745l.05-.026c.143.272.275.546.404.82 6.95 11.96 58.465 96.107 131.693 95.649v-.09a24.53 24.53 0 0 1 1.618.045c11.152-.47 76.684-5.95 103.043-70.007l21.548 8.857-21.616-8.895c4.688-11.392 17.342-17.099 28.865-13.328 21.325 5.805 321.466 89.464 312.92 200.588l-.043-.003-.004.056.069.005a23.88 23.88 0 0 1-.32 2.456c-1.96 15.452-16.791 81.039-127.652 81.039h-363.307c-.623 0-1.238-.025-1.849-.072-16.775.014-124.5-2.21-168.062-61.021l-.032.025-.387-.5-.05.038a24.96 24.96 0 0 1-.688-.996c-9.85-12.798-83.507-109.484-160.76-237.766l.066-.04-.005-.007-.09.054a24.11 24.11 0 0 1-.898-1.637c-5.125-8.028-28.829-43.047-52.354-43.047-.666 0-1.326-.029-1.978-.084-3.958.216-21.45 3.392-21.45 42.788h-.093v278.899h.09c0 12.908-10.464 23.374-23.374 23.374H596.34c-12.91 0-23.375-10.466-23.375-23.374v-276.275c-40.285-60.21-85.303-161.547-102.058-259.034-8.354-48.604-9.83-96.636-.526-138.937 9.838-44.728 31.494-83.059 69.266-109.402 21.548-15.028 47.972-25.855 79.993-31.361l-.006-.033c8.25-1.417 16.234 1.677 21.424 7.496z" style="fill:#c62828;fill-rule:nonzero"/><path d="M1538.03 1547.08c-18.709 10.358-45.046 17.713-82.157 17.713h-363.308c-.622 0-1.237-.025-1.848-.072-16.775.014-124.5-2.209-168.062-61.02l-.032.024-.387-.5-.05.038a24.96 24.96 0 0 1-.688-.995c-9.85-12.799-83.507-109.484-160.76-237.766l.066-.04-.005-.007-.09.054a24.11 24.11 0 0 1-.899-1.637c-5.124-8.028-28.828-43.048-52.353-43.048-.666 0-1.327-.028-1.979-.084-3.957.216-21.45 3.392-21.45 42.788h-.092v63.517c-4.613-2.348-9.375-3.779-14.128-3.779-.666 0-1.326-.028-1.978-.084-3.958.216-21.45 3.392-21.45 42.788h-.093v199.832H596.34c-12.91 0-23.375-10.467-23.375-23.375v-276.275c-40.286-60.21-85.303-161.547-102.058-259.034-6.578-38.27-8.89-76.185-5.034-111.227 9.897-13.066 21.862-24.723 36.125-34.67 21.548-15.028 47.972-25.855 79.993-31.362l-.006-.032c8.25-1.417 16.234 1.677 21.424 7.496 16.25 15.87 183.412 183.405 364.24 533.745l.052-.026c.14.272.272.546.401.821 6.95 11.959 58.467 96.107 131.693 95.648v-.09c.545-.003 1.082.012 1.618.045 51.63-2.176 265.015-251.892 436.616 80.613z" style="fill:#b71c1c;fill-rule:nonzero"/></g></svg>